<svg width="1000" height="1000" viewBox="0 0 1000 1000" fill="none" xmlns="http://www.w3.org/2000/svg">
<g clip-path="url(#clip0_1_8)">
<rect width="1000" height="1000" fill="white"/>
<rect width="1000" height="1000" fill="url(#paint0_linear_1_8)"/>
<path d="M453.357 334.078V381.759H307.02V654H246.814V334.078H453.357ZM287.464 453.829H365.027C389.783 453.829 411.023 458.004 428.748 466.354C446.473 474.557 460.022 486.056 469.397 500.851C478.919 515.646 483.68 533.004 483.68 552.926C483.68 567.867 480.97 581.49 475.55 593.795C470.276 606.1 462.513 616.793 452.259 625.875C442.005 634.811 429.554 641.769 414.905 646.749C400.257 651.583 383.631 654 365.027 654H246.814V334.078H307.459V606.539H365.027C378.211 606.539 389.124 604.049 397.767 599.068C406.409 594.088 412.854 587.496 417.103 579.293C421.351 571.09 423.475 562.154 423.475 552.486C423.475 542.965 421.351 534.322 417.103 526.559C412.854 518.795 406.409 512.643 397.767 508.102C389.124 503.561 378.211 501.29 365.027 501.29H287.464V453.829ZM735.926 334.078V381.759H589.588V654H529.383V334.078H735.926ZM570.032 453.829H647.596C672.352 453.829 693.592 458.004 711.316 466.354C729.041 474.557 742.591 486.056 751.966 500.851C761.487 515.646 766.248 533.004 766.248 552.926C766.248 567.867 763.538 581.49 758.118 593.795C752.845 606.1 745.081 616.793 734.827 625.875C724.573 634.811 712.122 641.769 697.474 646.749C682.825 651.583 666.199 654 647.596 654H529.383V334.078H590.027V606.539H647.596C660.779 606.539 671.692 604.049 680.335 599.068C688.978 594.088 695.423 587.496 699.671 579.293C703.919 571.09 706.043 562.154 706.043 552.486C706.043 542.965 703.919 534.322 699.671 526.559C695.423 518.795 688.978 512.643 680.335 508.102C671.692 503.561 660.779 501.29 647.596 501.29H570.032V453.829Z" fill="white"/>
</g>
<defs>
<linearGradient id="paint0_linear_1_8" x1="0" y1="1000" x2="1000" y2="0" gradientUnits="userSpaceOnUse">
<stop stop-color="#E100BE"/>
<stop offset="1" stop-color="#59009A"/>
</linearGradient>
<clipPath id="clip0_1_8">
<rect width="1000" height="1000" fill="white"/>
</clipPath>
</defs>
</svg>
